<?xml version="1.0" encoding="UTF-8"?>
<svg width="56px" height="56px" viewBox="0 0 56 56" version="1.1" xmlns="http://www.w3.org/2000/svg" xmlns:xlink="http://www.w3.org/1999/xlink">
    <!-- Generator: Sketch 46.2 (44496) - http://www.bohemiancoding.com/sketch -->
    <title>logo</title>
    <desc>Created with Sketch.</desc>
    <defs></defs>
    <g id="landing-page" stroke="none" stroke-width="1" fill="none" fill-rule="evenodd">
        <g id="Artboard-2-Copy-3" transform="translate(-692.000000, -42.000000)">
            <g id="Group-11" transform="translate(450.000000, 42.000000)">
                <g id="logo" transform="translate(242.000000, 0.000000)">
                    <circle id="Oval" fill="#3F4A56" cx="28" cy="28" r="28"></circle>
                    <g id="Group" transform="translate(16.000000, 16.000000)" fill="#FFFFFF">
                        <path d="M7.69495192,3.79354873 L6.62458281,3.79354873 L6.62458281,3.79354873 C5.04679303,3.79354873 3.76774169,5.07260007 3.76774169,6.65038986 L3.76774169,6.65038986 L3.76774169,15.0668557 C4.79194427,15.6932328 5.92656176,15.9856553 6.8333978,16.1201865 C6.70754527,15.8658915 6.63681201,15.5794619 6.63681201,15.2765116 L6.63681201,8.56686454 L6.63681201,8.56686454 C6.63681201,8.56487301 6.63681507,8.5628822 6.63682118,8.5608921 C6.63646891,8.44741262 6.64082934,5.94286435 7.69495192,3.79354873 Z" id="Combined-Shape"></path>
                        <path d="M15.8172358,-0.406165054 L14.7468667,-0.406165054 L14.7468667,-0.406165054 C13.1690769,-0.406165054 11.8900256,0.872886283 11.8900256,2.45067607 L11.8900256,2.45067607 L11.8900256,10.8671419 C12.9142281,11.493519 14.0488456,11.7859415 14.9556817,11.9204728 C14.8298291,11.6661777 14.7590959,11.3797481 14.7590959,11.0767978 L14.7590959,4.36715076 C14.7590959,4.36515923 14.7590989,4.36316841 14.759105,4.36117831 C14.7587528,4.24769882 14.7631132,1.74315056 15.8172358,-0.406165054 Z" id="Combined-Shape" transform="translate(13.853631, 5.757154) rotate(90.000000) translate(-13.853631, -5.757154) "></path>
                        <path d="M19.9530169,7.69031177 L18.8826478,7.69031177 L18.8826478,7.69031177 C17.304858,7.69031177 16.0258067,8.96936311 16.0258067,10.5471529 L16.0258067,10.5471529 L16.0258067,18.9636187 C17.0500093,19.5899959 18.1846268,19.8824183 19.0914628,20.0169496 C18.9656103,19.7626546 18.894877,19.4762249 18.894877,19.1732746 L18.894877,12.4636276 L18.894877,12.4636276 C18.894877,12.461636 18.8948801,12.4596452 18.8948862,12.4576551 C18.8945339,12.3441757 18.8988943,9.83962739 19.9530169,7.69031177 Z" id="Combined-Shape" transform="translate(17.989412, 13.853631) rotate(180.000000) translate(-17.989412, -13.853631) "></path>
                        <path d="M11.8430536,11.8260929 L10.7726845,11.8260929 C9.1948947,11.8260929 7.91584336,13.1051442 7.91584336,14.682934 L7.91584336,14.682934 L7.91584336,23.0993999 C8.94004594,23.725777 10.0746634,24.0181994 10.9814995,24.1527307 C10.8556469,23.8984357 10.7849137,23.6120061 10.7849137,23.3090558 L10.7849137,16.5994087 C10.7849137,16.5974172 10.7849167,16.5954264 10.7849229,16.5934363 C10.7845706,16.4799568 10.788931,13.9754085 11.8430536,11.8260929 Z" id="Combined-Shape" transform="translate(9.879448, 17.989412) rotate(270.000000) translate(-9.879448, -17.989412) "></path>
                        <path d="M13.1390509,-3.55271368e-15 L5.71368224,-3.55271368e-15 L5.71368224,-2.66453526e-15 C2.56321646,-2.08580408e-15 0.00829265605,2.54981831 2.01458824e-05,5.6983456 L0.00884523112,5.69807877 C0.00884523112,5.69807877 0.246018505,11.1587107 2.38057797,13.7703173 C2.52829759,13.9510504 2.68510411,14.118139 2.84903237,14.2726061 L2.84903237,6.65815387 L2.84903237,6.65815387 C2.84903237,4.55443415 4.55443415,2.84903237 6.65815387,2.84903237 L6.65815387,2.84903237 L8.25904577,2.84903237 C8.53150786,2.46504786 8.85002984,2.11065202 9.22239607,1.80630378 C10.1988545,1.00820942 11.6742808,0.421644302 13.1390509,-2.72687428e-12 Z" id="Combined-Shape"></path>
                        <path d="M23.1767868,-0.566786478 L15.7514181,-0.566786478 L15.7514181,-0.566786478 C12.6009523,-0.566786478 10.0460285,1.98303183 10.037756,5.13155912 L10.0465811,5.13129229 C10.0465811,5.13129229 10.2837544,10.5919242 12.4183138,13.2035308 C12.5660334,13.3842639 12.72284,13.5513525 12.8867682,13.7058197 L12.8867682,6.09136739 L12.8867682,6.09136739 C12.8867682,3.98764768 14.59217,2.28224589 16.6958897,2.28224589 L16.6958897,2.28224589 L18.2967816,2.28224589 C18.5692437,1.89826138 18.8877657,1.54386554 19.2601319,1.2395173 C20.2365903,0.441422939 21.7120167,-0.145142177 23.1767868,-0.566786478 Z" id="Combined-Shape" transform="translate(16.607271, 6.569517) rotate(90.000000) translate(-16.607271, -6.569517) "></path>
                        <path d="M23.7454824,9.47096832 L16.3201137,9.47096832 L16.3201137,9.47096832 C13.169648,9.47096832 10.6147242,12.0207866 10.6064516,15.1693139 L10.6152767,15.1690471 C10.6152767,15.1690471 10.85245,20.629679 12.9870095,23.2412856 C13.1347291,23.4220187 13.2915356,23.5891073 13.4554639,23.7435744 L13.4554639,16.1291222 L13.4554639,16.1291222 C13.4554639,14.0254025 15.1608656,12.3200007 17.2645854,12.3200007 L17.2645854,12.3200007 L18.8654773,12.3200007 C19.1379394,11.9360162 19.4564613,11.5816203 19.8288276,11.2772721 C20.8052859,10.4791777 22.2807123,9.89261262 23.7454824,9.47096832 Z" id="Combined-Shape" transform="translate(17.175967, 16.607271) rotate(180.000000) translate(-17.175967, -16.607271) "></path>
                        <path d="M13.731625,10.039664 L6.30625632,10.039664 L6.30625632,10.039664 C3.15579054,10.039664 0.600866738,12.5894823 0.592594228,15.7380096 L0.601419313,15.7377427 C0.601419313,15.7377427 0.838592587,21.1983747 2.97315205,23.8099812 C3.12087167,23.9907143 3.27767819,24.157803 3.44160645,24.3122701 L3.44160645,16.6978178 L3.44160645,16.6978178 C3.44160645,14.5940981 5.14700824,12.8886963 7.25072795,12.8886963 L7.25072795,12.8886963 L8.85161985,12.8886963 C9.12408195,12.5047118 9.44260392,12.150316 9.81497015,11.8459677 C10.7914285,11.0478734 12.2668549,10.4613083 13.731625,10.039664 Z" id="Combined-Shape" transform="translate(7.162110, 17.175967) rotate(270.000000) translate(-7.162110, -17.175967) "></path>
                    </g>
                </g>
            </g>
        </g>
    </g>
</svg>